<svg viewBox="0 0 534 92" fill="none" xmlns="http://www.w3.org/2000/svg" shape-rendering="auto">
<path d="M29.8281 21.2812V30.8438H0.296875V21.2812H29.8281ZM7.60938 8.76562H21.1094V56.7188C21.1094 58.1875 21.2969 59.3125 21.6719 60.0938C22.0781 60.875 22.6719 61.4219 23.4531 61.7344C24.2344 62.0156 25.2188 62.1562 26.4062 62.1562C27.25 62.1562 28 62.125 28.6562 62.0625C29.3438 61.9688 29.9219 61.875 30.3906 61.7812L30.4375 71.7188C29.2812 72.0938 28.0312 72.3906 26.6875 72.6094C25.3438 72.8281 23.8594 72.9375 22.2344 72.9375C19.2656 72.9375 16.6719 72.4531 14.4531 71.4844C12.2656 70.4844 10.5781 68.8906 9.39062 66.7031C8.20312 64.5156 7.60938 61.6406 7.60938 58.0781V8.76562ZM50.6875 0V72H37.1875V0H50.6875ZM48.7656 44.8594H45.0625C45.0938 41.3281 45.5625 38.0781 46.4688 35.1094C47.375 32.1094 48.6719 29.5156 50.3594 27.3281C52.0469 25.1094 54.0625 23.3906 56.4062 22.1719C58.7812 20.9531 61.4062 20.3438 64.2812 20.3438C66.7812 20.3438 69.0469 20.7031 71.0781 21.4219C73.1406 22.1094 74.9062 23.2344 76.375 24.7969C77.875 26.3281 79.0312 28.3438 79.8438 30.8438C80.6562 33.3438 81.0625 36.375 81.0625 39.9375V72H67.4688V39.8438C67.4688 37.5938 67.1406 35.8281 66.4844 34.5469C65.8594 33.2344 64.9375 32.3125 63.7188 31.7812C62.5312 31.2188 61.0625 30.9375 59.3125 30.9375C57.375 30.9375 55.7188 31.2969 54.3438 32.0156C53 32.7344 51.9219 33.7344 51.1094 35.0156C50.2969 36.2656 49.7031 37.7344 49.3281 39.4219C48.9531 41.1094 48.7656 42.9219 48.7656 44.8594ZM114.672 72.9375C110.734 72.9375 107.203 72.3125 104.078 71.0625C100.953 69.7812 98.2969 68.0156 96.1094 65.7656C93.9531 63.5156 92.2969 60.9062 91.1406 57.9375C89.9844 54.9375 89.4062 51.75 89.4062 48.375V46.5C89.4062 42.6562 89.9531 39.1406 91.0469 35.9531C92.1406 32.7656 93.7031 30 95.7344 27.6562C97.7969 25.3125 100.297 23.5156 103.234 22.2656C106.172 20.9844 109.484 20.3438 113.172 20.3438C116.766 20.3438 119.953 20.9375 122.734 22.125C125.516 23.3125 127.844 25 129.719 27.1875C131.625 29.375 133.062 32 134.031 35.0625C135 38.0938 135.484 41.4688 135.484 45.1875V50.8125H95.1719V41.8125H122.219V40.7812C122.219 38.9062 121.875 37.2344 121.188 35.7656C120.531 34.2656 119.531 33.0781 118.188 32.2031C116.844 31.3281 115.125 30.8906 113.031 30.8906C111.25 30.8906 109.719 31.2812 108.438 32.0625C107.156 32.8438 106.109 33.9375 105.297 35.3438C104.516 36.75 103.922 38.4062 103.516 40.3125C103.141 42.1875 102.953 44.25 102.953 46.5V48.375C102.953 50.4062 103.234 52.2812 103.797 54C104.391 55.7188 105.219 57.2031 106.281 58.4531C107.375 59.7031 108.688 60.6719 110.219 61.3594C111.781 62.0469 113.547 62.3906 115.516 62.3906C117.953 62.3906 120.219 61.9219 122.312 60.9844C124.438 60.0156 126.266 58.5625 127.797 56.625L134.359 63.75C133.297 65.2812 131.844 66.75 130 68.1562C128.188 69.5625 126 70.7188 123.438 71.625C120.875 72.5 117.953 72.9375 114.672 72.9375ZM189.812 61.0312V72H153.484V61.0312H189.812ZM158.078 3.75V72H144.016V3.75H158.078ZM185.078 31.5469V42.2344H153.484V31.5469H185.078ZM189.766 3.75V14.7656H153.484V3.75H189.766ZM213.203 62.1562L224.453 21.2812H238.562L221.453 72H212.922L213.203 62.1562ZM205.469 21.2812L216.766 62.2031L217 72H208.422L191.312 21.2812H205.469ZM267.297 72.9375C263.359 72.9375 259.828 72.3125 256.703 71.0625C253.578 69.7812 250.922 68.0156 248.734 65.7656C246.578 63.5156 244.922 60.9062 243.766 57.9375C242.609 54.9375 242.031 51.75 242.031 48.375V46.5C242.031 42.6562 242.578 39.1406 243.672 35.9531C244.766 32.7656 246.328 30 248.359 27.6562C250.422 25.3125 252.922 23.5156 255.859 22.2656C258.797 20.9844 262.109 20.3438 265.797 20.3438C269.391 20.3438 272.578 20.9375 275.359 22.125C278.141 23.3125 280.469 25 282.344 27.1875C284.25 29.375 285.688 32 286.656 35.0625C287.625 38.0938 288.109 41.4688 288.109 45.1875V50.8125H247.797V41.8125H274.844V40.7812C274.844 38.9062 274.5 37.2344 273.812 35.7656C273.156 34.2656 272.156 33.0781 270.812 32.2031C269.469 31.3281 267.75 30.8906 265.656 30.8906C263.875 30.8906 262.344 31.2812 261.062 32.0625C259.781 32.8438 258.734 33.9375 257.922 35.3438C257.141 36.75 256.547 38.4062 256.141 40.3125C255.766 42.1875 255.578 44.25 255.578 46.5V48.375C255.578 50.4062 255.859 52.2812 256.422 54C257.016 55.7188 257.844 57.2031 258.906 58.4531C260 59.7031 261.312 60.6719 262.844 61.3594C264.406 62.0469 266.172 62.3906 268.141 62.3906C270.578 62.3906 272.844 61.9219 274.938 60.9844C277.062 60.0156 278.891 58.5625 280.422 56.625L286.984 63.75C285.922 65.2812 284.469 66.75 282.625 68.1562C280.812 69.5625 278.625 70.7188 276.062 71.625C273.5 72.5 270.578 72.9375 267.297 72.9375ZM309.016 32.1094V72H295.516V21.2812H308.172L309.016 32.1094ZM307.047 44.8594H303.391C303.391 41.1094 303.875 37.7344 304.844 34.7344C305.812 31.7031 307.172 29.125 308.922 27C310.672 24.8438 312.75 23.2031 315.156 22.0781C317.594 20.9219 320.312 20.3438 323.312 20.3438C325.688 20.3438 327.859 20.6875 329.828 21.375C331.797 22.0625 333.484 23.1562 334.891 24.6562C336.328 26.1562 337.422 28.1406 338.172 30.6094C338.953 33.0781 339.344 36.0938 339.344 39.6562V72H325.75V39.6094C325.75 37.3594 325.438 35.6094 324.812 34.3594C324.188 33.1094 323.266 32.2344 322.047 31.7344C320.859 31.2031 319.391 30.9375 317.641 30.9375C315.828 30.9375 314.25 31.2969 312.906 32.0156C311.594 32.7344 310.5 33.7344 309.625 35.0156C308.781 36.2656 308.141 37.7344 307.703 39.4219C307.266 41.1094 307.047 42.9219 307.047 44.8594ZM374.453 21.2812V30.8438H344.922V21.2812H374.453ZM352.234 8.76562H365.734V56.7188C365.734 58.1875 365.922 59.3125 366.297 60.0938C366.703 60.875 367.297 61.4219 368.078 61.7344C368.859 62.0156 369.844 62.1562 371.031 62.1562C371.875 62.1562 372.625 62.125 373.281 62.0625C373.969 61.9688 374.547 61.875 375.016 61.7812L375.062 71.7188C373.906 72.0938 372.656 72.3906 371.312 72.6094C369.969 72.8281 368.484 72.9375 366.859 72.9375C363.891 72.9375 361.297 72.4531 359.078 71.4844C356.891 70.4844 355.203 68.8906 354.016 66.7031C352.828 64.5156 352.234 61.6406 352.234 58.0781V8.76562Z" fill="white"/>
<path d="M409.516 60.5625V37.9688C409.516 36.3438 409.25 34.9531 408.719 33.7969C408.188 32.6094 407.359 31.6875 406.234 31.0312C405.141 30.375 403.719 30.0469 401.969 30.0469C400.469 30.0469 399.172 30.3125 398.078 30.8438C396.984 31.3438 396.141 32.0781 395.547 33.0469C394.953 33.9844 394.656 35.0938 394.656 36.375H381.156C381.156 34.2188 381.656 32.1719 382.656 30.2344C383.656 28.2969 385.109 26.5938 387.016 25.125C388.922 23.625 391.188 22.4531 393.812 21.6094C396.469 20.7656 399.438 20.3438 402.719 20.3438C406.656 20.3438 410.156 21 413.219 22.3125C416.281 23.625 418.688 25.5938 420.438 28.2188C422.219 30.8438 423.109 34.125 423.109 38.0625V59.7656C423.109 62.5469 423.281 64.8281 423.625 66.6094C423.969 68.3594 424.469 69.8906 425.125 71.2031V72H411.484C410.828 70.625 410.328 68.9062 409.984 66.8438C409.672 64.75 409.516 62.6562 409.516 60.5625ZM411.297 41.1094L411.391 48.75H403.844C402.062 48.75 400.516 48.9531 399.203 49.3594C397.891 49.7656 396.812 50.3438 395.969 51.0938C395.125 51.8125 394.5 52.6562 394.094 53.625C393.719 54.5938 393.531 55.6562 393.531 56.8125C393.531 57.9688 393.797 59.0156 394.328 59.9531C394.859 60.8594 395.625 61.5781 396.625 62.1094C397.625 62.6094 398.797 62.8594 400.141 62.8594C402.172 62.8594 403.938 62.4531 405.438 61.6406C406.938 60.8281 408.094 59.8281 408.906 58.6406C409.75 57.4531 410.188 56.3281 410.219 55.2656L413.781 60.9844C413.281 62.2656 412.594 63.5938 411.719 64.9688C410.875 66.3438 409.797 67.6406 408.484 68.8594C407.172 70.0469 405.594 71.0312 403.75 71.8125C401.906 72.5625 399.719 72.9375 397.188 72.9375C393.969 72.9375 391.047 72.2969 388.422 71.0156C385.828 69.7031 383.766 67.9062 382.234 65.625C380.734 63.3125 379.984 60.6875 379.984 57.75C379.984 55.0938 380.484 52.7344 381.484 50.6719C382.484 48.6094 383.953 46.875 385.891 45.4688C387.859 44.0312 390.312 42.9531 393.25 42.2344C396.188 41.4844 399.594 41.1094 403.469 41.1094H411.297ZM447.016 31.0312V91.5H433.516V21.2812H446.031L447.016 31.0312ZM479.125 46.0781V47.0625C479.125 50.75 478.688 54.1719 477.812 57.3281C476.969 60.4844 475.719 63.2344 474.062 65.5781C472.406 67.8906 470.344 69.7031 467.875 71.0156C465.438 72.2969 462.625 72.9375 459.438 72.9375C456.344 72.9375 453.656 72.3125 451.375 71.0625C449.094 69.8125 447.172 68.0625 445.609 65.8125C444.078 63.5312 442.844 60.8906 441.906 57.8906C440.969 54.8906 440.25 51.6719 439.75 48.2344V45.6562C440.25 41.9688 440.969 38.5938 441.906 35.5312C442.844 32.4375 444.078 29.7656 445.609 27.5156C447.172 25.2344 449.078 23.4688 451.328 22.2188C453.609 20.9688 456.281 20.3438 459.344 20.3438C462.562 20.3438 465.391 20.9531 467.828 22.1719C470.297 23.3906 472.359 25.1406 474.016 27.4219C475.703 29.7031 476.969 32.4219 477.812 35.5781C478.688 38.7344 479.125 42.2344 479.125 46.0781ZM465.578 47.0625V46.0781C465.578 43.9219 465.391 41.9375 465.016 40.125C464.672 38.2812 464.109 36.6719 463.328 35.2969C462.578 33.9219 461.578 32.8594 460.328 32.1094C459.109 31.3281 457.625 30.9375 455.875 30.9375C454.031 30.9375 452.453 31.2344 451.141 31.8281C449.859 32.4219 448.812 33.2812 448 34.4062C447.188 35.5312 446.578 36.875 446.172 38.4375C445.766 40 445.516 41.7656 445.422 43.7344V50.25C445.578 52.5625 446.016 54.6406 446.734 56.4844C447.453 58.2969 448.562 59.7344 450.062 60.7969C451.562 61.8594 453.531 62.3906 455.969 62.3906C457.75 62.3906 459.25 62 460.469 61.2188C461.688 60.4062 462.672 59.2969 463.422 57.8906C464.203 56.4844 464.75 54.8594 465.062 53.0156C465.406 51.1719 465.578 49.1875 465.578 47.0625ZM501.016 31.0312V91.5H487.516V21.2812H500.031L501.016 31.0312ZM533.125 46.0781V47.0625C533.125 50.75 532.688 54.1719 531.812 57.3281C530.969 60.4844 529.719 63.2344 528.062 65.5781C526.406 67.8906 524.344 69.7031 521.875 71.0156C519.438 72.2969 516.625 72.9375 513.438 72.9375C510.344 72.9375 507.656 72.3125 505.375 71.0625C503.094 69.8125 501.172 68.0625 499.609 65.8125C498.078 63.5312 496.844 60.8906 495.906 57.8906C494.969 54.8906 494.25 51.6719 493.75 48.2344V45.6562C494.25 41.9688 494.969 38.5938 495.906 35.5312C496.844 32.4375 498.078 29.7656 499.609 27.5156C501.172 25.2344 503.078 23.4688 505.328 22.2188C507.609 20.9688 510.281 20.3438 513.344 20.3438C516.562 20.3438 519.391 20.9531 521.828 22.1719C524.297 23.3906 526.359 25.1406 528.016 27.4219C529.703 29.7031 530.969 32.4219 531.812 35.5781C532.688 38.7344 533.125 42.2344 533.125 46.0781ZM519.578 47.0625V46.0781C519.578 43.9219 519.391 41.9375 519.016 40.125C518.672 38.2812 518.109 36.6719 517.328 35.2969C516.578 33.9219 515.578 32.8594 514.328 32.1094C513.109 31.3281 511.625 30.9375 509.875 30.9375C508.031 30.9375 506.453 31.2344 505.141 31.8281C503.859 32.4219 502.812 33.2812 502 34.4062C501.188 35.5312 500.578 36.875 500.172 38.4375C499.766 40 499.516 41.7656 499.422 43.7344V50.25C499.578 52.5625 500.016 54.6406 500.734 56.4844C501.453 58.2969 502.562 59.7344 504.062 60.7969C505.562 61.8594 507.531 62.3906 509.969 62.3906C511.75 62.3906 513.25 62 514.469 61.2188C515.688 60.4062 516.672 59.2969 517.422 57.8906C518.203 56.4844 518.75 54.8594 519.062 53.0156C519.406 51.1719 519.578 49.1875 519.578 47.0625Z" fill="#26B1FF" stroke="#26B1FF" stroke-width="0.5"/>
</svg>
